{
    "asset" : {
        "generator" : "Khronos glTF Blender I/O v1.8.19",
        "version" : "2.0"
    },
    "scene" : 0,
    "scenes" : [
        {
            "name" : "Scene",
            "nodes" : [
                0
            ]
        }
    ],
    "nodes" : [
        {
            "mesh" : 0,
            "name" : "Player",
            "translation" : [
                0,
                0,
                -2.7967982292175293
            ]
        }
    ],
    "materials" : [
        {
            "doubleSided" : true,
            "name" : "Plate Junction.001",
            "normalTexture" : {
                "index" : 0
            },
            "pbrMetallicRoughness" : {
                "baseColorTexture" : {
                    "index" : 1
                },
                "metallicRoughnessTexture" : {
                    "index" : 2
                }
            }
        }
    ],
    "meshes" : [
        {
            "name" : "Player",
            "primitives" : [
                {
                    "attributes" : {
                        "POSITION" : 0,
                        "NORMAL" : 1,
                        "TEXCOORD_0" : 2
                    },
                    "indices" : 3,
                    "material" : 0
                }
            ]
        }
    ],
    "textures" : [
        {
            "sampler" : 0,
            "source" : 0
        },
        {
            "sampler" : 0,
            "source" : 1
        },
        {
            "sampler" : 0,
            "source" : 2
        }
    ],
    "images" : [
        {
            "mimeType" : "image/png",
            "name" : "PlateBakeNorm",
            "uri" : "PlateTexture/PlateBakeNorm.png"
        },
        {
            "mimeType" : "image/png",
            "name" : "PlateBakeColor",
            "uri" : "PlateTexture/PlateBakeColor.png"
        },
        {
            "mimeType" : "image/png",
            "name" : "PlateBakeMet-PlateBakeRough",
            "uri" : "PlateTexture/PlateBakeMet-PlateBakeRough.png"
        }
    ],
    "accessors" : [
        {
            "bufferView" : 0,
            "componentType" : 5126,
            "count" : 8794,
            "max" : [
                0.9872310161590576,
                0.9975767135620117,
                0.9872307181358337
            ],
            "min" : [
                -0.9872304201126099,
                -0.9975767135620117,
                -0.9872304201126099
            ],
            "type" : "VEC3"
        },
        {
            "bufferView" : 1,
            "componentType" : 5126,
            "count" : 8794,
            "type" : "VEC3"
        },
        {
            "bufferView" : 2,
            "componentType" : 5126,
            "count" : 8794,
            "type" : "VEC2"
        },
        {
            "bufferView" : 3,
            "componentType" : 5123,
            "count" : 47616,
            "type" : "SCALAR"
        }
    ],
    "bufferViews" : [
        {
            "buffer" : 0,
            "byteLength" : 105528,
            "byteOffset" : 0
        },
        {
            "buffer" : 0,
            "byteLength" : 105528,
            "byteOffset" : 105528
        },
        {
            "buffer" : 0,
            "byteLength" : 70352,
            "byteOffset" : 211056
        },
        {
            "buffer" : 0,
            "byteLength" : 95232,
            "byteOffset" : 281408
        }
    ],
    "samplers" : [
        {
            "magFilter" : 9729,
            "minFilter" : 9987
        }
    ],
    "buffers" : [
        {
            "byteLength" : 376640,
            "uri" : "ball.bin"
        }
    ]
}
