{
    "asset" : {
        "generator" : "Khronos glTF Blender I/O v1.8.19",
        "version" : "2.0"
    },
    "scene" : 0,
    "scenes" : [
        {
            "name" : "Scene",
            "nodes" : [
                0
            ]
        }
    ],
    "nodes" : [
        {
            "mesh" : 0,
            "name" : "Cylinder",
            "rotation" : [
                0.7005207538604736,
                -0.09628435969352722,
                0.09628436714410782,
                0.7005207538604736
            ],
            "scale" : [
                1,
                0.05712157487869263,
                1
            ]
        }
    ],
    "animations" : [
        {
            "channels" : [
                {
                    "sampler" : 0,
                    "target" : {
                        "node" : 0,
                        "path" : "rotation"
                    }
                }
            ],
            "name" : "CylinderAction",
            "samplers" : [
                {
                    "input" : 4,
                    "interpolation" : "LINEAR",
                    "output" : 5
                }
            ]
        }
    ],
    "materials" : [
        {
            "doubleSided" : true,
            "name" : "Plate Junction",
            "pbrMetallicRoughness" : {
                "roughnessFactor" : 0.3954545557498932
            }
        }
    ],
    "meshes" : [
        {
            "name" : "Cylinder",
            "primitives" : [
                {
                    "attributes" : {
                        "POSITION" : 0,
                        "NORMAL" : 1,
                        "TEXCOORD_0" : 2
                    },
                    "indices" : 3,
                    "material" : 0
                }
            ]
        }
    ],
    "accessors" : [
        {
            "bufferView" : 0,
            "componentType" : 5126,
            "count" : 2627,
            "max" : [
                0.96122807264328,
                1.164047360420227,
                0.9612279534339905
            ],
            "min" : [
                -0.9612280130386353,
                -1.1640474796295166,
                -0.9612279534339905
            ],
            "type" : "VEC3"
        },
        {
            "bufferView" : 1,
            "componentType" : 5126,
            "count" : 2627,
            "type" : "VEC3"
        },
        {
            "bufferView" : 2,
            "componentType" : 5126,
            "count" : 2627,
            "type" : "VEC2"
        },
        {
            "bufferView" : 3,
            "componentType" : 5123,
            "count" : 12096,
            "type" : "SCALAR"
        },
        {
            "bufferView" : 4,
            "componentType" : 5126,
            "count" : 24,
            "max" : [
                1
            ],
            "min" : [
                0.041666666666666664
            ],
            "type" : "SCALAR"
        },
        {
            "bufferView" : 5,
            "componentType" : 5126,
            "count" : 24,
            "type" : "VEC4"
        }
    ],
    "bufferViews" : [
        {
            "buffer" : 0,
            "byteLength" : 31524,
            "byteOffset" : 0
        },
        {
            "buffer" : 0,
            "byteLength" : 31524,
            "byteOffset" : 31524
        },
        {
            "buffer" : 0,
            "byteLength" : 21016,
            "byteOffset" : 63048
        },
        {
            "buffer" : 0,
            "byteLength" : 24192,
            "byteOffset" : 84064
        },
        {
            "buffer" : 0,
            "byteLength" : 96,
            "byteOffset" : 108256
        },
        {
            "buffer" : 0,
            "byteLength" : 384,
            "byteOffset" : 108352
        }
    ],
    "buffers" : [
        {
            "byteLength" : 108736,
            "uri" : "data:application/octet-stream;base64,"
        }
    ]
}
