{
    "asset" : {
        "generator" : "Khronos glTF Blender I/O v1.8.19",
        "version" : "2.0"
    },
    "scene" : 0,
    "scenes" : [
        {
            "name" : "Scene",
            "nodes" : [
                0
            ]
        }
    ],
    "nodes" : [
        {
            "mesh" : 0,
            "name" : "Room",
            "scale" : [
                0.9311054348945618,
                0.3535366654396057,
                1.710418701171875
            ],
            "translation" : [
                3.6022000312805176,
                0.3535385727882385,
                2.313476085662842
            ]
        }
    ],
    "materials" : [
        {
            "doubleSided" : true,
            "name" : "Mattress",
            "pbrMetallicRoughness" : {
                "baseColorFactor" : [
                    0.800000011920929,
                    0.800000011920929,
                    0.800000011920929,
                    1
                ],
                "metallicFactor" : 0,
                "roughnessFactor" : 0.5
            }
        },
        {
            "doubleSided" : true,
            "name" : "Rug",
            "pbrMetallicRoughness" : {
                "baseColorFactor" : [
                    0.2330150604248047,
                    0.004192255903035402,
                    0.002086130902171135,
                    1
                ],
                "metallicFactor" : 0,
                "roughnessFactor" : 0.5
            }
        },
        {
            "doubleSided" : true,
            "name" : "Bed",
            "pbrMetallicRoughness" : {
                "baseColorFactor" : [
                    0.052217841148376465,
                    0.024752583354711533,
                    0.013232339173555374,
                    1
                ],
                "metallicFactor" : 0,
                "roughnessFactor" : 0.5
            }
        },
        {
            "doubleSided" : true,
            "name" : "House",
            "pbrMetallicRoughness" : {
                "baseColorFactor" : [
                    0.9999988079071045,
                    0.9999989867210388,
                    1,
                    1
                ],
                "metallicFactor" : 0,
                "roughnessFactor" : 0.5
            }
        },
        {
            "doubleSided" : true,
            "name" : "Chimney",
            "pbrMetallicRoughness" : {
                "baseColorFactor" : [
                    0.011087636463344097,
                    0.011087636463344097,
                    0.011087636463344097,
                    1
                ],
                "metallicFactor" : 0,
                "roughnessFactor" : 0.5
            }
        },
        {
            "doubleSided" : true,
            "name" : "Table",
            "pbrMetallicRoughness" : {
                "baseColorFactor" : [
                    0.08650044351816177,
                    0.03954620659351349,
                    0.020288564264774323,
                    1
                ],
                "metallicFactor" : 0,
                "roughnessFactor" : 0.5
            }
        },
        {
            "doubleSided" : true,
            "name" : "Log",
            "pbrMetallicRoughness" : {
                "baseColorFactor" : [
                    0.21403494477272034,
                    0.09310717135667801,
                    0.04504675045609474,
                    1
                ],
                "metallicFactor" : 0,
                "roughnessFactor" : 0.5
            }
        },
        {
            "doubleSided" : true,
            "name" : "Pillow",
            "pbrMetallicRoughness" : {
                "baseColorFactor" : [
                    0.2019006311893463,
                    0.2019006311893463,
                    0.2019006311893463,
                    1
                ],
                "metallicFactor" : 0,
                "roughnessFactor" : 0.5
            }
        }
    ],
    "meshes" : [
        {
            "name" : "Cube.005",
            "primitives" : [
                {
                    "attributes" : {
                        "POSITION" : 0,
                        "NORMAL" : 1,
                        "TEXCOORD_0" : 2
                    },
                    "indices" : 3,
                    "material" : 0
                },
                {
                    "attributes" : {
                        "POSITION" : 4,
                        "NORMAL" : 5,
                        "TEXCOORD_0" : 6
                    },
                    "indices" : 7,
                    "material" : 1
                },
                {
                    "attributes" : {
                        "POSITION" : 8,
                        "NORMAL" : 9,
                        "TEXCOORD_0" : 10
                    },
                    "indices" : 11,
                    "material" : 2
                },
                {
                    "attributes" : {
                        "POSITION" : 12,
                        "NORMAL" : 13,
                        "TEXCOORD_0" : 14
                    },
                    "indices" : 15,
                    "material" : 3
                },
                {
                    "attributes" : {
                        "POSITION" : 16,
                        "NORMAL" : 17,
                        "TEXCOORD_0" : 18
                    },
                    "indices" : 19,
                    "material" : 4
                },
                {
                    "attributes" : {
                        "POSITION" : 20,
                        "NORMAL" : 21,
                        "TEXCOORD_0" : 22
                    },
                    "indices" : 23,
                    "material" : 5
                },
                {
                    "attributes" : {
                        "POSITION" : 24,
                        "NORMAL" : 25,
                        "TEXCOORD_0" : 26
                    },
                    "indices" : 27,
                    "material" : 6
                },
                {
                    "attributes" : {
                        "POSITION" : 28,
                        "NORMAL" : 29,
                        "TEXCOORD_0" : 30
                    },
                    "indices" : 31,
                    "material" : 7
                }
            ]
        }
    ],
    "accessors" : [
        {
            "bufferView" : 0,
            "componentType" : 5126,
            "count" : 36,
            "max" : [
                1,
                1,
                -0.28682681918144226
            ],
            "min" : [
                -1,
                0.4010404348373413,
                -1
            ],
            "type" : "VEC3"
        },
        {
            "bufferView" : 1,
            "componentType" : 5126,
            "count" : 36,
            "type" : "VEC3"
        },
        {
            "bufferView" : 2,
            "componentType" : 5126,
            "count" : 36,
            "type" : "VEC2"
        },
        {
            "bufferView" : 3,
            "componentType" : 5123,
            "count" : 60,
            "type" : "SCALAR"
        },
        {
            "bufferView" : 4,
            "componentType" : 5126,
            "count" : 132,
            "max" : [
                1,
                1,
                1
            ],
            "min" : [
                -7.785680770874023,
                -0.9918406009674072,
                -2.6028904914855957
            ],
            "type" : "VEC3"
        },
        {
            "bufferView" : 5,
            "componentType" : 5126,
            "count" : 132,
            "type" : "VEC3"
        },
        {
            "bufferView" : 6,
            "componentType" : 5126,
            "count" : 132,
            "type" : "VEC2"
        },
        {
            "bufferView" : 7,
            "componentType" : 5123,
            "count" : 240,
            "type" : "SCALAR"
        },
        {
            "bufferView" : 8,
            "componentType" : 5126,
            "count" : 70,
            "max" : [
                1,
                0.4010404348373413,
                1
            ],
            "min" : [
                -1,
                -1,
                -1
            ],
            "type" : "VEC3"
        },
        {
            "bufferView" : 9,
            "componentType" : 5126,
            "count" : 70,
            "type" : "VEC3"
        },
        {
            "bufferView" : 10,
            "componentType" : 5126,
            "count" : 70,
            "type" : "VEC2"
        },
        {
            "bufferView" : 11,
            "componentType" : 5123,
            "count" : 120,
            "type" : "SCALAR"
        },
        {
            "bufferView" : 12,
            "componentType" : 5126,
            "count" : 153,
            "max" : [
                1.6505002975463867,
                12.38546085357666,
                1.5057793855667114
            ],
            "min" : [
                -9.119470596313477,
                -1.0000053644180298,
                -4.357100009918213
            ],
            "type" : "VEC3"
        },
        {
            "bufferView" : 13,
            "componentType" : 5126,
            "count" : 153,
            "type" : "VEC3"
        },
        {
            "bufferView" : 14,
            "componentType" : 5126,
            "count" : 153,
            "type" : "VEC2"
        },
        {
            "bufferView" : 15,
            "componentType" : 5123,
            "count" : 261,
            "type" : "SCALAR"
        },
        {
            "bufferView" : 16,
            "componentType" : 5126,
            "count" : 130,
            "max" : [
                1.378854751586914,
                12.38546085357666,
                -2.863243579864502
            ],
            "min" : [
                -1.0845792293548584,
                -1.000006079673767,
                -4.204269886016846
            ],
            "type" : "VEC3"
        },
        {
            "bufferView" : 17,
            "componentType" : 5126,
            "count" : 130,
            "type" : "VEC3"
        },
        {
            "bufferView" : 18,
            "componentType" : 5126,
            "count" : 130,
            "type" : "VEC2"
        },
        {
            "bufferView" : 19,
            "componentType" : 5123,
            "count" : 198,
            "type" : "SCALAR"
        },
        {
            "bufferView" : 20,
            "componentType" : 5126,
            "count" : 192,
            "max" : [
                -3.9599547386169434,
                1.5487042665481567,
                -2.9170494079589844
            ],
            "min" : [
                -6.10793924331665,
                -1.0000067949295044,
                -4.045435428619385
            ],
            "type" : "VEC3"
        },
        {
            "bufferView" : 21,
            "componentType" : 5126,
            "count" : 192,
            "type" : "VEC3"
        },
        {
            "bufferView" : 22,
            "componentType" : 5126,
            "count" : 192,
            "type" : "VEC2"
        },
        {
            "bufferView" : 23,
            "componentType" : 5123,
            "count" : 264,
            "type" : "SCALAR"
        },
        {
            "bufferView" : 24,
            "componentType" : 5126,
            "count" : 72,
            "max" : [
                0.6869061589241028,
                -0.12759017944335938,
                -3.198754072189331
            ],
            "min" : [
                -0.5050296187400818,
                -0.9524029493331909,
                -3.8301784992218018
            ],
            "type" : "VEC3"
        },
        {
            "bufferView" : 25,
            "componentType" : 5126,
            "count" : 72,
            "type" : "VEC3"
        },
        {
            "bufferView" : 26,
            "componentType" : 5126,
            "count" : 72,
            "type" : "VEC2"
        },
        {
            "bufferView" : 27,
            "componentType" : 5123,
            "count" : 96,
            "type" : "SCALAR"
        },
        {
            "bufferView" : 28,
            "componentType" : 5126,
            "count" : 24,
            "max" : [
                0.6491555571556091,
                1.4220340251922607,
                -0.40126365423202515
            ],
            "min" : [
                -0.6491536498069763,
                0.9857842922210693,
                -0.840800940990448
            ],
            "type" : "VEC3"
        },
        {
            "bufferView" : 29,
            "componentType" : 5126,
            "count" : 24,
            "type" : "VEC3"
        },
        {
            "bufferView" : 30,
            "componentType" : 5126,
            "count" : 24,
            "type" : "VEC2"
        },
        {
            "bufferView" : 31,
            "componentType" : 5123,
            "count" : 36,
            "type" : "SCALAR"
        }
    ],
    "bufferViews" : [
        {
            "buffer" : 0,
            "byteLength" : 432,
            "byteOffset" : 0
        },
        {
            "buffer" : 0,
            "byteLength" : 432,
            "byteOffset" : 432
        },
        {
            "buffer" : 0,
            "byteLength" : 288,
            "byteOffset" : 864
        },
        {
            "buffer" : 0,
            "byteLength" : 120,
            "byteOffset" : 1152
        },
        {
            "buffer" : 0,
            "byteLength" : 1584,
            "byteOffset" : 1272
        },
        {
            "buffer" : 0,
            "byteLength" : 1584,
            "byteOffset" : 2856
        },
        {
            "buffer" : 0,
            "byteLength" : 1056,
            "byteOffset" : 4440
        },
        {
            "buffer" : 0,
            "byteLength" : 480,
            "byteOffset" : 5496
        },
        {
            "buffer" : 0,
            "byteLength" : 840,
            "byteOffset" : 5976
        },
        {
            "buffer" : 0,
            "byteLength" : 840,
            "byteOffset" : 6816
        },
        {
            "buffer" : 0,
            "byteLength" : 560,
            "byteOffset" : 7656
        },
        {
            "buffer" : 0,
            "byteLength" : 240,
            "byteOffset" : 8216
        },
        {
            "buffer" : 0,
            "byteLength" : 1836,
            "byteOffset" : 8456
        },
        {
            "buffer" : 0,
            "byteLength" : 1836,
            "byteOffset" : 10292
        },
        {
            "buffer" : 0,
            "byteLength" : 1224,
            "byteOffset" : 12128
        },
        {
            "buffer" : 0,
            "byteLength" : 522,
            "byteOffset" : 13352
        },
        {
            "buffer" : 0,
            "byteLength" : 1560,
            "byteOffset" : 13876
        },
        {
            "buffer" : 0,
            "byteLength" : 1560,
            "byteOffset" : 15436
        },
        {
            "buffer" : 0,
            "byteLength" : 1040,
            "byteOffset" : 16996
        },
        {
            "buffer" : 0,
            "byteLength" : 396,
            "byteOffset" : 18036
        },
        {
            "buffer" : 0,
            "byteLength" : 2304,
            "byteOffset" : 18432
        },
        {
            "buffer" : 0,
            "byteLength" : 2304,
            "byteOffset" : 20736
        },
        {
            "buffer" : 0,
            "byteLength" : 1536,
            "byteOffset" : 23040
        },
        {
            "buffer" : 0,
            "byteLength" : 528,
            "byteOffset" : 24576
        },
        {
            "buffer" : 0,
            "byteLength" : 864,
            "byteOffset" : 25104
        },
        {
            "buffer" : 0,
            "byteLength" : 864,
            "byteOffset" : 25968
        },
        {
            "buffer" : 0,
            "byteLength" : 576,
            "byteOffset" : 26832
        },
        {
            "buffer" : 0,
            "byteLength" : 192,
            "byteOffset" : 27408
        },
        {
            "buffer" : 0,
            "byteLength" : 288,
            "byteOffset" : 27600
        },
        {
            "buffer" : 0,
            "byteLength" : 288,
            "byteOffset" : 27888
        },
        {
            "buffer" : 0,
            "byteLength" : 192,
            "byteOffset" : 28176
        },
        {
            "buffer" : 0,
            "byteLength" : 72,
            "byteOffset" : 28368
        }
    ],
    "buffers" : [
        {
            "byteLength" : 28440,
            "uri" : "data:application/octet-stream;base64,"
        }
    ]
}
