{
    "asset" : {
        "generator" : "Khronos glTF Blender I/O v1.8.19",
        "version" : "2.0"
    },
    "scene" : 0,
    "scenes" : [
        {
            "name" : "Scene",
            "nodes" : [
                0
            ]
        }
    ],
    "nodes" : [
        {
            "mesh" : 0,
            "name" : "Icosphere"
        }
    ],
    "materials" : [
        {
            "doubleSided" : true,
            "name" : "Plate Junction",
            "pbrMetallicRoughness" : {
                "roughnessFactor" : 0.3954545557498932
            }
        }
    ],
    "meshes" : [
        {
            "name" : "Icosphere",
            "primitives" : [
                {
                    "attributes" : {
                        "POSITION" : 0,
                        "NORMAL" : 1,
                        "TEXCOORD_0" : 2
                    },
                    "indices" : 3,
                    "material" : 0
                }
            ]
        }
    ],
    "accessors" : [
        {
            "bufferView" : 0,
            "componentType" : 5126,
            "count" : 28102,
            "max" : [
                0.9945977330207825,
                0.9966703653335571,
                0.9950332641601562
            ],
            "min" : [
                -0.9945977926254272,
                -0.9966703653335571,
                -0.9950332045555115
            ],
            "type" : "VEC3"
        },
        {
            "bufferView" : 1,
            "componentType" : 5126,
            "count" : 28102,
            "type" : "VEC3"
        },
        {
            "bufferView" : 2,
            "componentType" : 5126,
            "count" : 28102,
            "type" : "VEC2"
        },
        {
            "bufferView" : 3,
            "componentType" : 5123,
            "count" : 92160,
            "type" : "SCALAR"
        }
    ],
    "bufferViews" : [
        {
            "buffer" : 0,
            "byteLength" : 337224,
            "byteOffset" : 0
        },
        {
            "buffer" : 0,
            "byteLength" : 337224,
            "byteOffset" : 337224
        },
        {
            "buffer" : 0,
            "byteLength" : 224816,
            "byteOffset" : 674448
        },
        {
            "buffer" : 0,
            "byteLength" : 184320,
            "byteOffset" : 899264
        }
    ],
    "buffers" : [
        {
            "byteLength" : 1083584,
            "uri" : "test.bin"
        }
    ]
}
